<?xml version="1.0" standalone="no"?>
<!DOCTYPE svg PUBLIC "-//W3C//DTD SVG 20010904//EN"
 "http://www.w3.org/TR/2001/REC-SVG-20010904/DTD/svg10.dtd">
<svg version="1.0" xmlns="http://www.w3.org/2000/svg"
 width="400.000000pt" height="400.000000pt" viewBox="0 0 400.000000 400.000000"
 preserveAspectRatio="xMidYMid meet">
<metadata>
Created by potrace 1.11, written by Peter Selinger 2001-2013
</metadata>
<g transform="translate(0.000000,400.000000) scale(0.100000,-0.100000)"
fill="#000000" stroke="none">
<path d="M1918 3939 c-29 -9 -84 -21 -123 -24 -98 -10 -204 -64 -273 -140 -29
-31 -52 -63 -52 -70 0 -8 -16 -26 -35 -41 -21 -15 -35 -35 -35 -48 0 -11 -9
-45 -21 -75 -15 -41 -19 -66 -14 -105 4 -28 2 -71 -4 -96 -11 -48 8 -195 34
-255 12 -29 13 -27 20 45 4 41 8 91 9 110 4 50 4 50 21 50 8 0 31 23 52 50 20
28 41 50 45 50 4 0 8 4 8 10 0 23 77 80 108 80 11 0 40 11 66 25 26 14 58 25
70 25 13 0 29 7 36 15 10 12 15 13 21 3 8 -13 90 -13 99 1 3 5 16 7 30 6 14
-1 36 2 49 7 14 5 28 5 36 -2 6 -5 15 -7 18 -4 3 3 9 -11 13 -32 12 -63 51
-87 84 -52 11 12 20 26 20 31 0 4 14 -1 30 -13 45 -32 61 -70 54 -127 -8 -72
2 -105 41 -133 36 -26 79 -97 89 -146 3 -16 8 -56 12 -89 7 -68 10 -90 20
-159 5 -37 4 -47 -5 -42 -8 5 -11 -2 -10 -26 1 -18 1 -37 -1 -43 -1 -5 -2 -17
-1 -25 1 -13 2 -13 11 0 11 17 13 1 4 -25 -5 -13 -8 -14 -15 -3 -7 10 -9 9 -9
-4 0 -11 7 -18 18 -18 15 0 18 -6 14 -30 -2 -16 -9 -30 -14 -30 -5 0 -8 -15
-7 -32 1 -18 -4 -46 -12 -61 -11 -26 -14 -27 -20 -10 -6 15 -8 14 -8 -7 -1
-20 -3 -22 -12 -10 -8 12 -10 10 -5 -10 3 -14 -2 -34 -10 -44 -10 -15 -14 -16
-15 -5 0 8 -3 6 -8 -6 -7 -16 -9 -14 -15 15 l-8 35 -9 -39 c-12 -50 -15 -53
-37 -33 -18 16 -18 15 -14 -13 5 -32 -5 -38 -27 -17 -11 10 -12 8 -7 -10 4
-12 2 -24 -3 -28 -6 -3 -8 0 -5 8 3 8 1 18 -5 22 -6 3 -11 -1 -11 -10 0 -9 -4
-13 -10 -10 -5 3 -19 1 -30 -5 -19 -10 -20 -9 -14 14 4 17 0 30 -14 44 -18 18
-19 18 -31 1 -6 -10 -11 -26 -11 -34 0 -8 -4 -15 -10 -15 -5 0 -7 8 -3 18 4
12 -1 10 -18 -7 -15 -16 -19 -26 -11 -29 7 -2 12 -13 12 -25 0 -16 -3 -18 -9
-8 -7 11 -10 11 -15 0 -3 -8 -3 -4 -1 8 3 12 1 24 -5 28 -8 5 -8 10 0 20 8 9
8 15 0 20 -5 3 -10 -1 -10 -9 0 -19 -12 -20 -29 -3 -10 10 -11 8 -5 -6 6 -15
2 -17 -22 -12 -26 5 -26 4 -6 -4 27 -13 28 -18 2 -39 -23 -19 -36 -67 -20 -77
5 -3 10 -12 10 -18 0 -7 -4 -6 -10 3 -9 13 -11 13 -21 0 -9 -13 -10 -12 -5 2
3 10 0 20 -6 24 -7 4 -6 9 3 15 10 6 8 9 -9 9 -13 0 -21 -4 -18 -9 3 -4 -1
-17 -8 -27 -13 -17 -14 -16 -9 11 3 23 2 27 -6 15 -6 -8 -11 -11 -11 -6 0 11
-30 -14 -30 -26 0 -5 5 -6 10 -3 6 3 10 2 10 -4 0 -5 -4 -13 -10 -16 -5 -3
-10 -1 -10 5 0 6 -4 8 -10 5 -6 -4 -7 1 -3 12 6 16 4 16 -17 -2 l-23 -20 12
22 c14 27 15 55 1 33 -7 -10 -10 -11 -11 -2 -2 18 -4 23 -21 61 -12 26 -13 37
-4 47 8 9 14 7 23 -10 12 -21 12 -21 13 -1 0 30 69 29 81 0 7 -18 8 -18 8 -2
1 10 5 15 11 12 6 -3 7 1 4 9 -3 9 -9 16 -13 16 -4 0 -8 7 -8 15 0 11 4 12 13
4 8 -7 14 -6 20 2 4 8 3 9 -4 5 -7 -4 -12 -1 -12 8 0 18 16 30 23 16 3 -6 4
-5 3 2 -5 24 -166 40 -166 17 0 -8 -4 -8 -12 -2 -7 6 -21 9 -30 8 -24 -4 -23
7 2 23 12 7 18 17 15 22 -3 4 7 11 22 14 38 8 253 20 337 19 59 0 67 2 52 13
-10 7 -15 17 -11 23 3 7 0 8 -9 5 -9 -3 -12 -13 -9 -22 5 -13 2 -13 -13 3 -10
11 -24 33 -29 49 -6 16 -18 30 -28 32 -13 2 -15 -1 -9 -9 5 -7 12 -21 16 -31
5 -16 4 -17 -9 -6 -13 11 -15 9 -15 -12 0 -23 -5 -26 -57 -32 -32 -3 -102 -9
-155 -11 -83 -5 -98 -3 -98 10 0 15 42 31 57 22 5 -3 19 3 32 13 17 12 25 28
25 53 1 19 5 33 10 30 4 -3 6 -20 3 -38 -4 -23 -1 -35 8 -39 12 -4 30 19 27
36 -1 4 5 5 13 2 18 -7 20 12 3 22 -6 4 -17 -1 -24 -11 -12 -16 -13 -16 -11 3
0 11 4 19 8 16 4 -2 10 0 13 5 10 15 -54 33 -70 20 -8 -6 -11 -16 -7 -23 4 -7
1 -6 -9 1 -8 7 -18 10 -21 6 -4 -3 -7 1 -7 10 0 10 5 17 11 17 6 0 18 9 27 21
11 12 30 21 50 21 31 1 31 2 11 16 -25 17 -69 3 -69 -23 0 -10 -10 -15 -31
-15 -40 0 -65 14 -83 48 l-15 27 -2 -25 c-1 -14 -2 -32 -3 -40 0 -8 5 -20 13
-26 12 -9 6 -19 -31 -58 -25 -25 -52 -46 -61 -46 -11 0 -14 -5 -10 -17 6 -15
4 -16 -9 -6 -17 15 -28 8 -28 -19 0 -10 -4 -18 -10 -18 -5 0 -7 7 -4 15 4 8 2
15 -3 15 -11 0 -49 81 -44 95 1 6 -3 5 -9 -2 -9 -8 -9 -19 1 -46 7 -20 16 -34
21 -31 4 3 8 1 8 -5 0 -5 -5 -11 -11 -13 -20 -7 40 -192 87 -268 12 -19 44
-60 72 -90 50 -53 52 -57 52 -112 0 -32 -4 -58 -9 -58 -6 0 -7 -16 -4 -37 4
-26 3 -34 -6 -29 -6 4 -9 12 -6 17 4 5 1 9 -4 9 -6 0 -11 -9 -11 -20 0 -11 7
-20 15 -20 8 0 15 -5 15 -11 0 -5 -4 -8 -9 -5 -8 5 -9 -11 -10 -91 0 -18 -5
-33 -11 -33 -18 0 -11 -36 8 -37 13 -1 18 7 20 30 2 17 8 34 14 38 6 4 11 49
11 120 0 63 3 105 5 95 3 -15 6 -16 13 -5 7 11 10 9 15 -8 4 -13 13 -23 20
-23 8 0 14 -4 14 -9 0 -5 16 -16 35 -25 19 -9 37 -21 40 -26 4 -6 11 -8 16 -4
5 3 7 9 4 14 -3 5 8 11 25 15 17 4 28 10 25 15 -3 4 1 12 8 18 15 12 79 14 72
1 -4 -5 1 -9 9 -9 9 0 16 8 17 18 0 10 3 12 6 4 3 -8 11 -5 25 10 17 20 19 20
14 4 -6 -16 -4 -17 10 -5 9 7 26 14 38 14 27 1 106 42 106 56 0 6 -5 7 -12 3
-7 -4 -8 -3 -4 5 4 6 12 9 17 6 5 -4 9 2 10 12 0 10 3 13 5 7 6 -14 50 -6 65
12 6 8 17 14 24 14 6 0 12 7 12 14 0 12 -5 13 -21 4 -20 -11 -20 -10 -3 9 9
11 17 25 17 32 0 7 9 3 19 -10 l19 -24 -5 28 c-4 21 -2 27 13 28 18 0 18 1 1
8 -17 6 -17 8 -3 20 8 7 20 10 26 6 8 -5 10 1 8 16 -2 13 2 24 9 24 6 0 14 3
18 7 4 4 14 4 23 1 15 -4 15 -3 2 6 -13 10 -13 13 1 24 9 6 22 30 29 52 7 22
15 47 18 55 11 29 13 55 12 123 0 40 3 67 10 67 5 0 11 -6 11 -12 1 -7 3 -20
4 -28 1 -8 3 -28 4 -45 2 -49 21 -8 21 48 0 38 -3 47 -17 47 -36 1 -58 29 -61
78 -7 137 -6 186 6 190 7 2 18 9 25 16 7 7 18 11 25 10 7 -1 8 0 2 3 -13 6
-13 79 0 104 12 21 71 49 105 49 16 0 24 7 27 23 7 37 -10 357 -20 370 -4 7
-16 33 -26 58 -9 26 -25 54 -36 64 -11 10 -17 21 -15 25 6 10 -34 90 -45 90
-6 0 -10 7 -10 16 0 8 -5 12 -10 9 -6 -3 -13 1 -16 9 -3 9 -12 16 -20 16 -8 0
-14 5 -14 10 0 6 -20 19 -44 30 -24 10 -47 23 -50 29 -4 6 -15 11 -26 11 -10
0 -33 14 -51 31 -26 25 -39 30 -62 25 -20 -4 -33 -1 -41 9 -15 19 -89 35 -110
23 -9 -5 -26 -6 -37 -3 -41 13 -69 12 -121 -6z m220 -390 c1 -8 -4 -23 -12
-34 -15 -19 -15 -18 -16 18 0 27 4 37 13 35 6 -3 13 -11 15 -19z m339 -821
c-3 -8 -6 -5 -6 6 -1 11 2 17 5 13 3 -3 4 -12 1 -19z m-10 -140 c-3 -7 -5 -2
-5 12 0 14 2 19 5 13 2 -7 2 -19 0 -25z m-937 -118 c0 -5 5 -10 11 -10 5 0 7
5 4 10 -3 6 0 10 8 10 16 0 31 -27 28 -47 -1 -8 8 -13 21 -12 13 0 17 3 10 6
-13 5 -7 23 9 23 15 0 10 -57 -6 -64 -8 -3 -14 -2 -14 2 4 22 -3 24 -14 3 -13
-25 -32 -30 -32 -8 0 6 -8 19 -17 28 -21 19 -35 69 -19 69 6 0 11 -4 11 -10z
m110 -6 c0 -2 -7 -4 -15 -4 -8 0 -15 4 -15 10 0 5 7 7 15 4 8 -4 15 -8 15 -10z
m484 -125 c-21 -24 -27 -19 -18 15 5 21 9 24 20 15 12 -10 12 -15 -2 -30z
m153 -21 c-3 -7 -5 -2 -5 12 0 14 2 19 5 13 2 -7 2 -19 0 -25z m-257 -30 c0
-5 -4 -7 -9 -4 -4 3 -6 -7 -4 -22 4 -21 2 -24 -6 -12 -17 23 -14 60 4 54 8 -4
15 -10 15 -16z m-37 -21 c3 -8 -1 -14 -8 -14 -7 0 -11 6 -8 14 3 7 6 13 8 13
2 0 5 -6 8 -13z m192 -177 c-4 -12 -9 -19 -12 -17 -3 3 -2 15 2 27 4 12 9 19
12 17 3 -3 2 -15 -2 -27z"/>
<path d="M2019 3136 c-3 -3 -27 -6 -54 -7 -75 -3 -131 -37 -90 -53 31 -11 169
7 200 27 l30 19 -28 -5 c-19 -3 -30 0 -34 9 -5 14 -16 18 -24 10z"/>
<path d="M2098 3093 c7 -3 16 -2 19 1 4 3 -2 6 -13 5 -11 0 -14 -3 -6 -6z"/>
<path d="M1445 3044 c-28 -25 -35 -38 -35 -69 0 -36 1 -37 18 -22 10 10 25 17
33 17 10 -1 8 -5 -6 -16 -16 -12 -17 -16 -6 -23 12 -7 11 -12 -1 -30 -8 -11
-18 -18 -23 -13 -4 4 -1 -3 6 -16 10 -17 15 -19 17 -8 4 17 37 30 52 21 5 -3
10 -1 10 4 0 6 -4 11 -10 11 -5 0 -10 5 -10 10 0 6 17 10 38 10 21 0 46 6 57
13 11 7 36 14 55 16 33 3 78 20 54 21 -7 0 -14 6 -17 14 -4 10 0 12 14 9 39
-11 17 24 -35 54 -47 28 -72 34 -123 31 -43 -2 -60 -9 -88 -34z m91 -45 c-27
-11 -54 -18 -60 -16 -19 6 47 36 79 36 27 0 25 -2 -19 -20z m122 -20 c-2 -6
-8 -10 -13 -10 -5 0 -11 4 -13 10 -2 6 4 11 13 11 9 0 15 -5 13 -11z m-108
-19 c0 -11 -4 -20 -9 -20 -11 0 -22 26 -14 34 12 12 23 5 23 -14z"/>
<path d="M1965 3063 c-28 -7 -38 -18 -41 -47 -2 -17 3 -26 19 -30 33 -9 57 -7
57 4 0 6 -14 10 -31 10 l-32 0 27 25 c29 26 64 33 63 13 -1 -37 4 -43 38 -44
29 -1 36 3 41 22 7 26 24 33 24 9 0 -8 -4 -15 -10 -15 -5 0 -10 -4 -10 -10 0
-10 54 -3 79 10 43 23 -159 71 -224 53z"/>
<path d="M2630 3060 c-8 -5 -10 -10 -5 -10 6 0 17 5 25 10 8 5 11 10 5 10 -5
0 -17 -5 -25 -10z"/>
<path d="M1672 2918 c-16 -51 -23 -128 -12 -128 5 0 12 12 16 28 3 15 10 43
15 62 5 19 9 43 9 53 0 29 -18 19 -28 -15z"/>
<path d="M1941 2621 c-1 -7 -7 -11 -15 -8 -8 3 -22 -4 -33 -16 -12 -15 -13
-19 -3 -12 10 6 9 4 -2 -6 -21 -20 -12 -32 13 -18 11 5 19 6 19 2 0 -4 7 2 16
13 12 15 14 15 11 2 -4 -10 2 -18 16 -22 26 -6 37 2 18 14 -8 4 -11 15 -8 24
4 10 1 16 -7 16 -8 0 -17 6 -19 13 -4 9 -6 9 -6 -2z"/>
<path d="M2125 2480 c3 -5 11 -10 16 -10 6 0 7 5 4 10 -3 6 -11 10 -16 10 -6
0 -7 -4 -4 -10z"/>
<path d="M2350 2440 c0 -5 5 -10 10 -10 6 0 10 5 10 10 0 6 -4 10 -10 10 -5 0
-10 -4 -10 -10z"/>
<path d="M2130 2421 c0 -5 5 -13 10 -16 6 -3 10 -2 10 4 0 5 -4 13 -10 16 -5
3 -10 2 -10 -4z"/>
<path d="M2167 2373 c-4 -3 -7 -13 -7 -22 1 -13 3 -13 11 2 11 19 8 33 -4 20z"/>
<path d="M1904 2286 c4 -41 18 -42 40 -4 l18 33 -21 -25 -20 -25 -10 25 c-10
25 -10 25 -7 -4z"/>
<path d="M1806 2291 c-4 -7 -5 -15 -2 -18 9 -9 19 4 14 18 -4 11 -6 11 -12 0z"/>
<path d="M2220 2090 c0 -5 5 -10 10 -10 6 0 10 5 10 10 0 6 -4 10 -10 10 -5 0
-10 -4 -10 -10z"/>
<path d="M2278 2093 c7 -3 16 -2 19 1 4 3 -2 6 -13 5 -11 0 -14 -3 -6 -6z"/>
<path d="M2673 1992 c20 -21 37 -47 37 -57 0 -16 2 -17 9 -6 20 31 -28 101
-68 101 -9 0 -1 -14 22 -38z"/>
<path d="M1631 1904 c0 -11 3 -14 6 -6 3 7 2 16 -1 19 -3 4 -6 -2 -5 -13z"/>
<path d="M1611 1856 c-1 -11 -4 -17 -7 -13 -7 6 -54 -45 -54 -59 0 -4 -7 -16
-17 -26 -24 -27 -11 -31 18 -5 14 12 29 34 32 49 4 15 15 28 26 30 14 2 16 8
10 23 -7 19 -8 19 -8 1z"/>
<path d="M1303 1806 c3 -7 1 -18 -5 -24 -7 -7 -3 -12 13 -17 22 -7 22 -8 4
-21 -18 -14 -18 -14 2 -14 21 0 38 24 27 41 -3 5 0 9 5 9 6 0 11 5 11 10 0 6
-9 10 -20 10 -11 0 -20 5 -20 10 0 6 -5 10 -11 10 -6 0 -9 -6 -6 -14z"/>
<path d="M1600 1762 c0 -34 3 -62 8 -62 8 0 6 110 -3 118 -3 3 -5 -22 -5 -56z"/>
<path d="M1230 1786 c-13 -36 -13 -36 9 -36 16 0 19 5 15 27 -7 38 -12 40 -24
9z"/>
<path d="M1140 1773 c0 -7 -4 -13 -10 -13 -5 0 -10 -7 -10 -15 0 -8 -4 -15 -9
-15 -5 0 -13 -9 -16 -21 -4 -12 -15 -29 -25 -39 -11 -11 -16 -27 -13 -44 4
-20 1 -26 -13 -26 -11 0 -26 -5 -34 -11 -12 -8 -11 -9 6 -4 19 5 22 2 21 -28
-1 -29 -4 -33 -22 -30 -19 4 -18 3 4 -16 13 -12 33 -20 45 -20 17 1 17 2 4 6
-10 2 -18 11 -18 19 0 11 6 14 23 9 20 -5 20 -5 5 8 -15 12 -15 17 -3 40 7 14
10 29 7 33 -4 4 1 4 11 1 14 -5 17 -1 17 22 0 41 9 61 26 54 17 -6 20 37 3 54
-7 7 0 12 25 17 46 9 50 37 6 34 -17 -1 -30 -8 -30 -15z"/>
<path d="M1013 1751 c-1 -11 7 -21 18 -24 24 -6 24 5 1 26 -16 15 -18 15 -19
-2z"/>
<path d="M2890 1745 c0 -19 -4 -23 -17 -19 -15 5 -15 4 -3 -4 19 -14 39 3 33
28 -7 27 -13 25 -13 -5z"/>
<path d="M1398 1753 c7 -3 16 -2 19 1 4 3 -2 6 -13 5 -11 0 -14 -3 -6 -6z"/>
<path d="M2788 1743 c7 -3 16 -2 19 1 4 3 -2 6 -13 5 -11 0 -14 -3 -6 -6z"/>
<path d="M1196 1715 c-11 -17 -12 -25 -5 -25 7 0 2 -9 -10 -19 -14 -12 -18
-22 -11 -26 5 -3 7 -17 4 -31 -4 -15 -2 -24 6 -24 6 0 9 4 5 9 -3 6 4 15 16
22 17 9 19 13 8 20 -9 7 -4 8 16 4 28 -6 29 -5 12 8 -10 8 -14 18 -9 21 17 10
20 55 5 60 -20 8 -19 9 -37 -19z"/>
<path d="M1001 1683 c8 -22 7 -30 -6 -39 -14 -10 -13 -12 5 -17 16 -4 20 0 20
19 0 13 4 24 8 24 4 0 8 9 8 20 0 14 -7 20 -23 20 -20 0 -22 -3 -12 -27z"/>
<path d="M1265 1700 c-16 -7 -17 -9 -3 -9 9 -1 20 4 23 9 7 11 7 11 -20 0z"/>
<path d="M923 1680 c-1 -11 2 -20 8 -20 5 0 9 -4 9 -9 0 -6 -15 -11 -32 -13
-30 -3 -33 -6 -35 -36 -1 -27 1 -31 12 -22 8 7 22 10 32 7 14 -3 11 -7 -14
-18 -18 -7 -33 -17 -33 -22 0 -5 6 -7 13 -4 47 19 47 19 41 3 -3 -9 -1 -16 6
-16 6 0 8 -4 5 -10 -3 -5 -17 -10 -30 -10 -13 0 -27 -4 -30 -10 -3 -5 0 -7 8
-4 15 5 47 -20 47 -37 0 -5 -6 -9 -12 -10 -7 0 -4 -4 7 -9 17 -7 16 -9 -10 -9
-16 -1 -25 -5 -19 -9 15 -10 15 -40 -2 -87 -7 -22 -13 -64 -11 -93 1 -28 0
-52 -3 -52 -3 0 -6 -23 -7 -50 0 -28 3 -50 8 -50 5 0 9 -9 9 -20 0 -12 7 -20
16 -20 14 0 14 3 4 15 -10 12 -10 15 0 15 10 0 10 3 1 14 -9 11 -9 15 1 19 9
4 7 6 -4 6 -9 1 -19 -5 -21 -11 -4 -10 -6 -10 -6 0 -1 8 8 16 19 19 11 3 17 9
14 14 -3 5 -10 7 -15 4 -5 -4 -9 -1 -9 4 0 6 7 11 15 11 9 0 15 9 15 23 0 12
12 76 26 142 14 66 27 125 28 132 1 7 5 16 9 19 4 4 2 13 -4 20 -7 8 -7 14 1
19 13 8 13 52 0 60 -5 3 -10 26 -10 51 0 34 -4 44 -16 44 -14 0 -14 3 -4 15
10 12 9 15 -7 15 -12 0 -19 -8 -20 -20z m-11 -65 c0 -5 -5 -11 -11 -13 -6 -2
-11 4 -11 13 0 9 5 15 11 13 6 -2 11 -8 11 -13z"/>
<path d="M1640 1690 c0 -5 5 -10 11 -10 5 0 7 5 4 10 -3 6 -8 10 -11 10 -2 0
-4 -4 -4 -10z"/>
<path d="M840 1680 c0 -6 7 -10 15 -10 8 0 15 2 15 4 0 2 -7 6 -15 10 -8 3
-15 1 -15 -4z"/>
<path d="M2760 1680 c0 -5 5 -10 11 -10 5 0 7 5 4 10 -3 6 -8 10 -11 10 -2 0
-4 -4 -4 -10z"/>
<path d="M1315 1670 c3 -5 -1 -10 -10 -10 -9 0 -24 -8 -33 -17 -16 -16 -16
-16 1 -10 10 4 24 7 30 7 7 0 18 9 25 20 10 17 10 20 -4 20 -8 0 -12 -4 -9
-10z"/>
<path d="M2956 1665 c4 -8 11 -15 16 -15 6 0 5 6 -2 15 -7 8 -14 15 -16 15 -2
0 -1 -7 2 -15z"/>
<path d="M3050 1660 c0 -5 7 -10 16 -10 8 0 12 5 9 10 -3 6 -10 10 -16 10 -5
0 -9 -4 -9 -10z"/>
<path d="M1675 1650 c-3 -5 -1 -10 4 -10 6 0 11 5 11 10 0 6 -2 10 -4 10 -3 0
-8 -4 -11 -10z"/>
<path d="M2600 1640 c0 -5 7 -10 16 -10 8 0 12 5 9 10 -3 6 -10 10 -16 10 -5
0 -9 -4 -9 -10z"/>
<path d="M837 1623 c-4 -3 -7 -11 -7 -17 0 -6 5 -5 12 2 6 6 9 14 7 17 -3 3
-9 2 -12 -2z"/>
<path d="M1135 1620 c-3 -5 -1 -10 4 -10 6 0 11 5 11 10 0 6 -2 10 -4 10 -3 0
-8 -4 -11 -10z"/>
<path d="M1210 1580 c0 -5 5 -10 10 -10 6 0 10 5 10 10 0 6 -4 10 -10 10 -5 0
-10 -4 -10 -10z"/>
<path d="M1711 1564 c0 -11 3 -14 6 -6 3 7 2 16 -1 19 -3 4 -6 -2 -5 -13z"/>
<path d="M764 1530 c1 -25 7 -55 14 -67 8 -15 9 -23 2 -23 -5 0 -10 -4 -10
-10 0 -5 7 -10 15 -10 9 0 15 9 15 25 0 14 -4 25 -10 25 -5 0 -10 15 -11 33 0
17 -4 41 -9 52 -6 14 -8 7 -6 -25z"/>
<path d="M1185 1560 c3 -5 8 -10 11 -10 2 0 4 5 4 10 0 6 -5 10 -11 10 -5 0
-7 -4 -4 -10z"/>
<path d="M1355 1559 c-4 -6 -5 -12 -2 -15 2 -3 7 2 10 11 7 17 1 20 -8 4z"/>
<path d="M1780 1540 c0 -5 5 -10 11 -10 5 0 7 5 4 10 -3 6 -8 10 -11 10 -2 0
-4 -4 -4 -10z"/>
<path d="M3445 1530 c-25 -11 1 -11 35 0 20 6 21 8 5 8 -11 0 -29 -3 -40 -8z"/>
<path d="M1200 1516 c7 -7 14 -6 21 1 9 9 7 12 -9 10 -14 -1 -18 -5 -12 -11z"/>
<path d="M1740 1521 c0 -5 7 -11 14 -14 10 -4 13 -1 9 9 -6 15 -23 19 -23 5z"/>
<path d="M1818 1518 c5 -5 16 -8 23 -6 8 3 3 7 -10 11 -17 4 -21 3 -13 -5z"/>
<path d="M3355 1510 c3 -6 1 -10 -6 -10 -7 0 -10 -3 -6 -6 3 -3 13 -2 22 4 16
8 16 9 1 15 -10 4 -15 3 -11 -3z"/>
<path d="M3530 1513 c8 -3 23 -12 33 -21 9 -8 17 -12 17 -7 0 12 -33 34 -50
34 -13 -1 -13 -1 0 -6z"/>
<path d="M1845 1490 c3 -5 10 -10 16 -10 5 0 9 5 9 10 0 6 -7 10 -16 10 -8 0
-12 -4 -9 -10z"/>
<path d="M1880 1476 c0 -9 5 -16 10 -16 6 0 10 4 10 9 0 6 -4 13 -10 16 -5 3
-10 -1 -10 -9z"/>
<path d="M1017 1474 c-12 -13 -7 -34 8 -34 8 0 15 -7 15 -15 0 -8 7 -15 15
-15 12 0 12 5 1 32 -14 33 -27 44 -39 32z"/>
<path d="M1915 1470 c3 -5 14 -10 23 -10 15 0 15 2 2 10 -20 13 -33 13 -25 0z"/>
<path d="M2138 1473 c7 -3 16 -2 19 1 4 3 -2 6 -13 5 -11 0 -14 -3 -6 -6z"/>
<path d="M1844 1458 c-4 -6 -3 -8 4 -4 6 3 13 2 17 -4 3 -5 15 -10 26 -10 10
0 19 -4 19 -10 0 -5 10 -10 23 -9 l22 0 -22 11 c-13 6 -23 14 -23 19 0 4 -9 5
-20 2 -11 -3 -20 0 -20 6 0 14 -17 14 -26 -1z"/>
<path d="M2050 1450 c0 -5 5 -10 10 -10 6 0 10 5 10 10 0 6 -4 10 -10 10 -5 0
-10 -4 -10 -10z"/>
<path d="M2103 1445 c-7 -8 -9 -16 -5 -19 4 -3 13 4 20 15 14 22 3 25 -15 4z"/>
<path d="M2150 1450 c0 -5 4 -10 9 -10 6 0 13 5 16 10 3 6 -1 10 -9 10 -9 0
-16 -4 -16 -10z"/>
<path d="M3350 1449 c0 -5 5 -7 10 -4 6 3 10 8 10 11 0 2 -4 4 -10 4 -5 0 -10
-5 -10 -11z"/>
<path d="M1995 1430 c-3 -5 1 -10 9 -10 9 0 16 5 16 10 0 6 -4 10 -9 10 -6 0
-13 -4 -16 -10z"/>
<path d="M2570 1430 c0 -5 5 -10 11 -10 5 0 7 5 4 10 -3 6 -8 10 -11 10 -2 0
-4 -4 -4 -10z"/>
<path d="M990 1424 c0 -10 52 -56 57 -50 8 8 -29 56 -43 56 -8 0 -14 -3 -14
-6z"/>
<path d="M3288 1423 c7 -3 16 -2 19 1 4 3 -2 6 -13 5 -11 0 -14 -3 -6 -6z"/>
<path d="M1528 1413 c7 -3 16 -2 19 1 4 3 -2 6 -13 5 -11 0 -14 -3 -6 -6z"/>
<path d="M3250 1395 c-8 -8 -38 -36 -66 -62 -57 -54 -140 -186 -128 -204 4 -7
3 -9 -2 -6 -6 3 -22 -17 -38 -44 -30 -54 -30 -80 0 -32 10 15 23 31 29 35 5 4
7 8 4 8 -4 0 9 17 27 37 19 20 34 43 34 50 0 8 14 19 30 24 17 7 30 18 30 27
-1 15 -2 15 -13 1 -14 -18 -47 -32 -47 -20 0 5 23 29 51 55 28 25 46 46 40 46
-18 0 12 40 34 46 11 3 25 16 32 29 13 28 5 32 -17 10z m-152 -220 c-6 -14
-13 -23 -15 -21 -5 5 15 46 22 46 3 0 -1 -11 -7 -25z"/>
<path d="M765 1390 c3 -5 13 -10 21 -10 8 0 14 5 14 10 0 6 -9 10 -21 10 -11
0 -17 -4 -14 -10z"/>
<path d="M877 1361 c-4 -17 -3 -21 5 -13 5 5 8 16 6 23 -3 8 -7 3 -11 -10z"/>
<path d="M992 1368 c5 -15 28 -23 28 -10 0 5 -7 13 -16 16 -10 4 -14 1 -12 -6z"/>
<path d="M1580 1376 c0 -2 7 -7 16 -10 8 -3 12 -2 9 4 -6 10 -25 14 -25 6z"/>
<path d="M780 1360 c13 -8 12 -10 -5 -11 -11 -1 -29 -1 -40 0 -19 2 -19 1 -3
-15 10 -10 33 -19 52 -20 27 -2 35 1 39 17 3 12 0 19 -9 19 -8 0 -14 5 -14 10
0 6 -8 10 -17 10 -15 0 -16 -2 -3 -10z"/>
<path d="M2770 1350 c0 -5 5 -10 11 -10 5 0 7 5 4 10 -3 6 -8 10 -11 10 -2 0
-4 -4 -4 -10z"/>
<path d="M982 1318 c12 -10 26 -18 32 -18 6 0 5 4 -3 9 -11 7 -10 11 5 19 16
9 13 11 -18 10 -37 -1 -37 -1 -16 -20z"/>
<path d="M627 1304 c-11 -11 -8 -26 3 -19 6 3 10 1 10 -6 0 -7 3 -10 6 -6 3 3
2 13 -3 22 -5 8 -12 12 -16 9z"/>
<path d="M794 1292 c3 -6 2 -14 -4 -17 -8 -5 -8 -11 0 -20 6 -7 8 -21 4 -31
-5 -16 -4 -16 5 -4 9 13 11 12 11 -3 0 -15 -6 -18 -32 -13 l-33 5 33 -11 c17
-6 32 -15 32 -19 0 -15 -23 -10 -58 11 -30 19 -72 30 -46 12 6 -4 13 -22 16
-41 l5 -35 -22 28 c-17 21 -25 25 -31 15 -4 -7 -3 -14 4 -17 7 -2 12 -10 12
-18 0 -8 5 -14 10 -14 6 0 10 -6 10 -14 0 -8 5 -18 12 -22 8 -5 9 0 6 14 -10
39 11 23 32 -22 11 -25 20 -50 20 -55 0 -14 -17 -14 -25 -1 -3 6 -1 10 6 10 7
0 5 8 -7 19 -10 10 -21 17 -23 15 -2 -2 -12 1 -22 6 -12 7 -20 7 -24 0 -3 -5
3 -10 14 -10 12 0 20 -6 18 -12 -1 -7 4 -12 11 -11 6 2 12 -5 12 -15 0 -9 9
-23 20 -30 12 -7 20 -8 20 -2 0 5 4 10 9 10 13 0 23 -32 13 -39 -5 -3 -12 -16
-16 -28 -4 -13 -11 -23 -16 -23 -5 0 -7 6 -5 13 3 6 -6 17 -20 24 -20 9 -25 8
-25 -3 0 -8 5 -14 11 -14 6 0 8 -9 4 -20 -5 -16 -2 -20 14 -20 25 0 28 -20 4
-21 -12 0 -13 -2 -5 -6 7 -3 19 1 27 7 13 10 19 9 34 -9 30 -34 45 -79 33 -94
-8 -10 -6 -13 8 -13 15 0 19 7 18 33 -1 18 -4 30 -8 28 -4 -3 -10 21 -14 53
-4 31 -8 66 -10 77 -2 11 -4 41 -5 68 -1 40 -5 49 -25 57 -27 10 -42 28 -32
38 4 3 16 1 26 -6 11 -7 21 -12 23 -12 4 0 1 83 -7 160 -2 24 -9 46 -16 48 -7
3 -10 0 -6 -6z m-19 -133 c4 -6 13 -8 21 -5 9 3 14 -2 14 -14 0 -13 -7 -20
-18 -20 -21 0 -42 18 -42 37 0 16 16 17 25 2z"/>
<path d="M660 1261 c-12 -24 -13 -41 -1 -41 5 0 8 7 7 16 0 9 5 19 12 21 7 3
12 -3 12 -14 0 -15 7 -20 31 -20 l31 0 -23 19 c-47 37 -57 40 -69 19z"/>
<path d="M982 1255 c-12 -14 -19 -25 -14 -25 4 0 18 -3 32 -6 24 -5 24 -5 6
10 -16 13 -17 18 -6 31 21 25 5 17 -18 -10z"/>
<path d="M2970 1208 c-12 -22 -12 -22 6 -6 10 10 15 20 12 24 -4 3 -12 -5 -18
-18z"/>
<path d="M975 1200 c-3 -5 -1 -10 4 -10 6 0 11 5 11 10 0 6 -2 10 -4 10 -3 0
-8 -4 -11 -10z"/>
<path d="M2870 1180 c-9 -6 -10 -10 -3 -10 6 0 15 5 18 10 8 12 4 12 -15 0z"/>
<path d="M588 1153 c12 -2 30 -2 40 0 9 3 -1 5 -23 4 -22 0 -30 -2 -17 -4z"/>
<path d="M630 1130 c0 -6 7 -10 15 -10 8 0 15 2 15 4 0 2 -7 6 -15 10 -8 3
-15 1 -15 -4z"/>
<path d="M960 1130 c0 -5 5 -10 10 -10 6 0 10 5 10 10 0 6 -4 10 -10 10 -5 0
-10 -4 -10 -10z"/>
<path d="M2911 1082 c-6 -21 -13 -54 -17 -73 l-6 -34 15 27 c9 16 15 36 15 45
-1 10 2 30 5 46 4 15 5 27 3 27 -3 0 -10 -17 -15 -38z"/>
<path d="M620 1100 c0 -5 5 -10 10 -10 6 0 10 5 10 10 0 6 -4 10 -10 10 -5 0
-10 -4 -10 -10z"/>
<path d="M1630 1090 c0 -5 4 -10 9 -10 6 0 13 5 16 10 3 6 -1 10 -9 10 -9 0
-16 -4 -16 -10z"/>
<path d="M533 1055 c-8 -19 -8 -25 1 -25 6 0 13 11 14 25 2 31 0 31 -15 0z"/>
<path d="M560 1066 c0 -9 7 -19 15 -23 25 -9 27 2 5 22 -18 17 -20 17 -20 1z"/>
<path d="M902 1020 c0 -14 2 -19 5 -12 2 6 2 18 0 25 -3 6 -5 1 -5 -13z"/>
<path d="M2088 1033 c7 -3 16 -2 19 1 4 3 -2 6 -13 5 -11 0 -14 -3 -6 -6z"/>
<path d="M3678 1028 c12 -6 22 -15 22 -20 0 -4 5 -8 10 -8 6 0 5 8 -2 20 -7
11 -22 20 -33 19 -19 0 -19 -1 3 -11z"/>
<path d="M871 998 c-1 -28 2 -36 13 -32 8 3 17 1 21 -5 3 -6 11 -11 16 -11 6
0 4 7 -5 15 -8 8 -19 15 -25 15 -5 0 -12 12 -14 28 -3 22 -4 20 -6 -10z"/>
<path d="M3014 998 c-15 -18 -31 -32 -37 -30 -13 4 -37 -18 -37 -34 0 -18 42
-9 58 13 7 10 19 26 27 36 8 9 15 21 15 26 0 5 6 12 13 14 8 4 8 6 0 6 -6 1
-24 -14 -39 -31z m-42 -60 c-7 -7 -12 -8 -12 -2 0 14 12 26 19 19 2 -3 -1 -11
-7 -17z"/>
<path d="M528 1013 c6 -2 12 -11 12 -19 0 -8 5 -14 10 -14 6 0 10 4 10 8 0 12
-22 32 -34 31 -6 0 -5 -3 2 -6z"/>
<path d="M1727 1013 c-4 -3 -15 -7 -25 -8 -33 -3 -87 -17 -98 -26 -6 -5 -23
-10 -38 -11 -14 -1 -26 -6 -26 -11 0 -5 -8 -7 -17 -5 -10 2 -26 -4 -37 -14
-10 -9 -31 -20 -46 -23 -32 -7 -153 -81 -190 -117 -14 -13 -35 -37 -47 -53
-12 -17 -40 -50 -62 -73 -31 -35 -43 -43 -61 -37 -19 6 -20 5 -8 -14 7 -12 14
-17 16 -11 2 5 7 10 11 10 5 0 2 -21 -6 -47 -27 -88 -34 -102 -49 -96 -8 3
-14 1 -14 -5 0 -6 4 -12 9 -14 4 -2 5 -12 0 -23 l-8 -20 0 20 c-1 17 -3 17
-11 5 -8 -12 -10 -9 -10 13 0 16 -4 26 -10 22 -5 -3 -10 0 -10 9 0 8 6 17 13
19 7 4 6 6 -5 6 -20 1 -42 62 -36 96 3 13 0 23 -5 22 -15 -3 -37 109 -24 122
8 8 7 11 -2 11 -10 0 -12 9 -7 30 4 21 2 30 -8 30 -9 0 -12 -16 -12 -55 1 -30
4 -55 8 -55 8 0 15 -38 22 -120 3 -30 8 -66 12 -80 5 -19 4 -22 -5 -14 -6 6
-13 25 -14 42 -1 18 -5 32 -9 32 -5 0 -8 7 -8 15 0 8 -4 15 -10 15 -5 0 -10
-6 -10 -12 0 -10 -3 -9 -9 1 -6 9 -11 10 -15 2 -4 -6 -2 -11 4 -11 7 0 10 -6
7 -13 -3 -7 5 -23 18 -35 27 -26 41 -66 19 -58 -17 6 -30 -36 -17 -57 7 -13
10 -13 23 1 13 14 12 15 -3 9 -12 -5 -17 -1 -17 12 0 14 5 18 20 14 22 -6 28
-48 8 -56 -8 -4 -7 -6 3 -6 19 -1 29 -20 30 -59 l1 -27 8 29 c5 16 7 33 4 38
-3 4 7 8 22 8 22 0 25 -2 14 -15 -10 -12 -10 -15 3 -15 11 0 14 -11 13 -45 -1
-24 -5 -48 -9 -51 -4 -4 -7 -3 -7 3 0 6 -8 10 -17 9 -10 0 -18 4 -18 11 0 6
-3 15 -7 19 -5 4 -8 -35 -8 -87 0 -69 -5 -109 -20 -149 -11 -30 -20 -56 -20
-57 0 -2 86 -3 191 -3 185 0 191 1 178 19 -52 70 -123 160 -126 158 -6 -7 26
-119 42 -144 18 -28 18 -28 -2 -11 -11 10 -24 18 -29 18 -19 0 -44 81 -49 162
-3 46 -8 96 -10 111 -5 28 -5 28 46 25 l51 -3 22 -60 c12 -33 32 -80 43 -105
l21 -45 1 83 c1 46 -4 92 -9 103 -12 21 -5 23 49 13 29 -6 31 -8 16 -24 -13
-14 -15 -41 -13 -156 l3 -139 43 -3 c24 -2 49 2 57 8 7 6 23 47 35 91 12 44
28 98 35 120 11 31 12 44 3 59 -7 11 -10 21 -8 24 3 2 36 -1 74 -7 l69 -12 18
-55 c9 -30 29 -94 43 -143 l27 -87 80 0 c63 0 87 4 107 19 15 10 37 22 50 25
28 9 28 20 -6 81 -24 45 -31 50 -61 50 -52 0 -48 -21 8 -56 28 -17 51 -34 51
-38 0 -4 -22 -20 -50 -35 -47 -26 -51 -26 -80 -11 -42 22 -53 56 -40 122 12
54 30 82 56 84 8 1 20 2 27 3 17 2 10 33 -20 84 -14 24 -30 63 -34 87 -19 102
-190 273 -288 290 -42 7 -66 -3 -113 -44 -37 -32 -52 -104 -44 -205 7 -93 18
-140 52 -214 25 -55 29 -72 16 -72 -8 0 -53 95 -73 155 -8 24 -14 86 -14 155
0 138 19 192 79 230 76 46 151 22 265 -85 82 -78 117 -127 126 -180 9 -51 100
-211 124 -218 10 -2 26 0 35 5 14 8 16 2 16 -48 0 -50 -2 -55 -15 -44 -10 8
-7 -5 9 -36 14 -27 30 -62 35 -77 9 -23 16 -28 38 -25 23 3 29 12 50 74 20 59
30 74 56 89 37 19 86 17 98 -5 4 -8 17 -48 29 -87 l21 -73 139 0 140 0 16 28
c49 80 71 110 101 138 26 25 34 42 43 100 6 38 11 77 11 87 0 9 5 15 11 11 6
-4 8 1 4 13 -4 13 0 25 9 33 13 11 13 15 3 22 -10 6 -10 10 2 18 13 9 13 10 0
10 -12 1 -11 3 3 11 14 8 17 18 11 41 -5 26 -4 30 10 25 9 -4 16 -2 16 3 0 6
-5 10 -12 10 -6 0 -2 8 10 18 13 12 18 23 12 31 -6 10 -10 8 -15 -8 -4 -13 -9
-20 -12 -17 -5 5 26 97 36 106 4 3 7 16 9 30 2 14 12 42 23 63 10 20 16 37 13
37 -13 0 -32 -29 -39 -58 -3 -18 -11 -32 -16 -32 -5 0 -9 -11 -9 -25 0 -14 -5
-25 -10 -25 -6 0 -10 -6 -9 -12 1 -7 0 -22 -1 -33 -2 -15 -5 -12 -10 10 -6 23
-7 20 -4 -15 2 -28 1 -40 -5 -31 -6 9 -12 -8 -20 -51 -6 -36 -11 -72 -11 -81
0 -9 -3 -17 -7 -17 -5 0 -9 -28 -11 -63 -2 -34 -8 -63 -13 -65 -5 -2 -6 -14
-3 -27 3 -12 1 -26 -5 -29 -5 -4 -8 -12 -5 -20 3 -9 -4 -12 -28 -10 -18 2 -24
1 -13 -2 34 -10 42 -24 17 -30 -13 -4 -22 -14 -22 -25 0 -11 -4 -19 -10 -19
-5 0 -10 7 -10 15 0 13 -4 12 -21 -4 -12 -11 -18 -24 -15 -29 7 -11 -47 -24
-69 -16 -8 4 -15 1 -15 -4 0 -6 9 -12 20 -14 18 -3 18 -4 -5 -15 -14 -6 -22
-7 -19 -1 3 5 -3 12 -15 15 -12 3 -21 9 -21 14 0 5 7 6 15 3 8 -4 15 -2 15 4
0 5 -8 12 -18 14 -10 3 -19 11 -19 19 0 8 -4 41 -8 74 -5 33 -9 72 -9 87 -1
14 -5 24 -9 21 -5 -3 -7 3 -5 12 1 10 19 26 38 36 19 11 31 19 27 19 -4 0 -3
9 3 20 6 11 14 19 18 18 4 -1 21 6 37 17 35 22 121 105 109 105 -5 0 2 7 15
16 18 13 20 18 10 25 -10 6 -6 9 13 9 23 0 29 6 39 40 14 47 5 63 -17 32 -8
-12 -24 -22 -35 -22 -11 0 -18 -4 -15 -9 3 -5 -13 -21 -37 -37 -23 -16 -46
-34 -52 -40 -5 -6 -45 -26 -88 -44 -62 -26 -75 -35 -66 -46 9 -11 8 -14 -4
-14 -26 0 -47 12 -47 26 0 27 -68 150 -128 231 -33 45 -58 84 -54 88 3 3 0 4
-8 0 -9 -3 -33 12 -60 37 -54 51 -149 99 -250 127 -41 11 -91 25 -110 31 -40
12 -74 13 -83 3z m123 -202 c0 -6 -4 -13 -10 -16 -5 -3 -10 1 -10 9 0 9 5 16
10 16 6 0 10 -4 10 -9z m123 -5 c8 -21 -17 -40 -31 -23 -9 10 -8 17 0 25 16
16 25 15 31 -2z m-290 -47 c10 -11 16 -23 14 -26 -6 -6 -47 28 -47 39 0 14 15
8 33 -13z m-18 -38 c3 -5 1 -12 -5 -16 -5 -3 -10 1 -10 9 0 18 6 21 15 7z
m-165 -105 c0 -3 -4 -8 -10 -11 -5 -3 -10 -1 -10 4 0 6 5 11 10 11 6 0 10 -2
10 -4z m82 -42 c-13 -9 -19 -9 -28 4 -9 13 -9 19 4 28 13 9 19 9 28 -4 9 -13
9 -19 -4 -28z m338 30 c0 -8 -4 -12 -10 -9 -5 3 -10 10 -10 16 0 5 5 9 10 9 6
0 10 -7 10 -16z m-400 -28 c0 -3 -4 -8 -10 -11 -5 -3 -10 -1 -10 4 0 6 5 11
10 11 6 0 10 -2 10 -4z m1040 -110 c0 -3 -4 -8 -10 -11 -5 -3 -10 -1 -10 4 0
6 5 11 10 11 6 0 10 -2 10 -4z m-1563 -72 c-3 -3 -12 -4 -19 -1 -8 3 -5 6 6 6
11 1 17 -2 13 -5z m1343 -118 c0 -3 -4 -8 -10 -11 -5 -3 -10 -1 -10 4 0 6 5
11 10 11 6 0 10 -2 10 -4z m-1320 -66 c0 -13 -5 -18 -15 -14 -16 7 -19 17 -8
27 12 13 23 7 23 -13z m1137 -26 c-3 -3 -12 -4 -19 -1 -8 3 -5 6 6 6 11 1 17
-2 13 -5z"/>
<path d="M598 998 c9 -9 15 -9 24 0 9 9 7 12 -12 12 -19 0 -21 -3 -12 -12z"/>
<path d="M720 981 c0 -9 30 -24 36 -18 2 1 -6 8 -16 15 -11 7 -20 8 -20 3z"/>
<path d="M550 950 c6 -11 17 -20 25 -20 23 0 17 16 -10 28 -24 11 -25 10 -15
-8z"/>
<path d="M990 960 c0 -5 5 -10 11 -10 5 0 7 5 4 10 -3 6 -8 10 -11 10 -2 0 -4
-4 -4 -10z"/>
<path d="M685 940 c-3 -5 1 -10 9 -10 9 0 16 5 16 10 0 6 -4 10 -9 10 -6 0
-13 -4 -16 -10z"/>
<path d="M885 918 c6 -22 11 -44 15 -78 1 -8 5 -1 9 15 8 33 -5 85 -21 85 -6
0 -7 -9 -3 -22z"/>
<path d="M513 917 c16 -13 16 -16 2 -30 -11 -12 -12 -17 -2 -20 9 -4 9 -8 -2
-15 -11 -8 -9 -14 8 -31 11 -11 27 -21 34 -21 9 0 8 3 -2 9 -7 5 -10 14 -7 20
4 6 3 11 -2 11 -10 0 -8 34 3 63 4 9 3 17 -3 17 -6 0 -19 3 -29 6 -17 5 -17 5
0 -9z"/>
<path d="M2861 875 c-7 -33 -19 -89 -27 -124 -8 -35 -12 -66 -9 -69 3 -3 8 9
11 26 4 18 11 29 17 25 6 -3 7 -1 3 5 -4 6 0 35 8 63 9 28 13 56 10 61 -4 6
-2 13 3 17 5 3 6 17 3 31 -6 21 -9 14 -19 -35z"/>
<path d="M585 910 c-3 -5 1 -10 9 -10 10 0 13 -6 9 -16 -5 -14 -3 -14 16 -3
13 9 17 15 9 18 -7 2 -18 8 -25 13 -7 5 -14 5 -18 -2z"/>
<path d="M2920 880 c-7 -17 -10 -33 -6 -37 3 -3 6 -1 6 6 0 7 3 10 8 8 4 -3 8
8 9 24 3 37 -1 37 -17 -1z"/>
<path d="M692 888 c5 -15 28 -23 28 -10 0 5 -7 13 -16 16 -10 4 -14 1 -12 -6z"/>
<path d="M1060 860 c0 -5 5 -10 10 -10 6 0 10 5 10 10 0 6 -4 10 -10 10 -5 0
-10 -4 -10 -10z"/>
<path d="M3680 851 c0 -5 5 -13 10 -16 6 -3 10 -2 10 4 0 5 -4 13 -10 16 -5 3
-10 2 -10 -4z"/>
<path d="M676 814 c-5 -12 -2 -15 10 -10 8 3 18 6 20 6 3 0 2 5 -1 10 -9 15
-22 12 -29 -6z"/>
<path d="M728 813 c7 -3 16 -2 19 1 4 3 -2 6 -13 5 -11 0 -14 -3 -6 -6z"/>
<path d="M958 813 c7 -3 16 -2 19 1 4 3 -2 6 -13 5 -11 0 -14 -3 -6 -6z"/>
<path d="M495 790 c3 -5 10 -10 16 -10 5 0 9 5 9 10 0 6 -7 10 -16 10 -8 0
-12 -4 -9 -10z"/>
<path d="M456 762 c-12 -19 -16 -80 -8 -103 8 -21 17 -26 46 -27 40 -2 91 -25
99 -44 4 -10 7 -10 15 0 6 9 18 11 37 6 16 -4 26 -3 22 2 -3 5 -19 11 -36 12
-43 3 -81 19 -81 34 0 10 2 10 9 -1 11 -17 23 1 15 23 -4 10 -1 16 9 16 16 0
33 18 25 26 -3 2 -19 -1 -37 -7 -24 -8 -29 -14 -20 -20 11 -6 10 -11 -6 -23
-11 -9 -26 -13 -33 -11 -8 3 -22 5 -32 5 -22 0 -35 54 -19 78 9 15 10 15 5 -1
-9 -29 4 -67 20 -60 11 4 12 9 3 19 -9 11 -8 14 2 14 11 0 11 3 -1 11 -12 8
-9 9 12 5 14 -3 34 -9 44 -13 14 -5 16 -3 10 12 -4 11 -4 16 0 12 8 -8 34 11
34 24 0 11 -50 1 -64 -12 -16 -15 -49 -11 -43 5 6 15 -19 31 -27 18z"/>
<path d="M620 751 c0 -5 7 -11 14 -14 10 -4 13 -1 9 9 -6 15 -23 19 -23 5z"/>
<path d="M871 732 c-1 -8 -6 -10 -13 -6 -8 5 -7 1 2 -10 15 -19 26 -7 17 17
-4 9 -6 9 -6 -1z"/>
<path d="M660 720 c0 -5 5 -10 11 -10 5 0 7 5 4 10 -3 6 -8 10 -11 10 -2 0 -4
-4 -4 -10z"/>
<path d="M2920 720 c-13 -8 -13 -10 2 -10 9 0 20 5 23 10 8 13 -5 13 -25 0z"/>
<path d="M420 680 c0 -8 5 -22 10 -30 9 -13 10 -13 10 0 0 8 -5 22 -10 30 -9
13 -10 13 -10 0z"/>
<path d="M870 676 c0 -8 5 -18 10 -21 6 -3 10 3 10 14 0 12 -4 21 -10 21 -5 0
-10 -6 -10 -14z"/>
<path d="M1053 673 c9 -2 25 -2 35 0 9 3 1 5 -18 5 -19 0 -27 -2 -17 -5z"/>
<path d="M711 659 c17 -11 39 -12 39 -1 0 4 -12 8 -27 9 -19 1 -22 -1 -12 -8z"/>
<path d="M630 651 c0 -5 9 -7 20 -4 11 3 20 7 20 9 0 2 -9 4 -20 4 -11 0 -20
-4 -20 -9z"/>
<path d="M715 630 c3 -5 8 -10 11 -10 2 0 4 5 4 10 0 6 -5 10 -11 10 -5 0 -7
-4 -4 -10z"/>
<path d="M3673 625 c0 -8 4 -12 9 -9 5 3 6 10 3 15 -9 13 -12 11 -12 -6z"/>
<path d="M668 623 c7 -3 16 -2 19 1 4 3 -2 6 -13 5 -11 0 -14 -3 -6 -6z"/>
<path d="M475 580 c0 -15 3 -26 8 -23 4 2 7 13 7 23 0 10 -3 21 -7 23 -5 3 -8
-8 -8 -23z"/>
<path d="M534 595 c11 -8 25 -15 30 -15 6 0 2 7 -8 15 -11 8 -25 15 -30 15 -6
0 -2 -7 8 -15z"/>
<path d="M3644 585 c8 -8 20 -15 27 -15 7 0 4 6 -7 15 -25 19 -40 19 -20 0z"/>
<path d="M2750 570 c0 -5 5 -10 10 -10 6 0 10 5 10 10 0 6 -4 10 -10 10 -5 0
-10 -4 -10 -10z"/>
<path d="M2861 544 c0 -11 3 -14 6 -6 3 7 2 16 -1 19 -3 4 -6 -2 -5 -13z"/>
<path d="M400 521 c0 -21 5 -31 16 -31 8 0 13 4 10 9 -11 18 28 21 104 10 43
-6 86 -9 96 -6 11 3 1 5 -21 6 -22 1 -52 7 -66 15 -14 7 -52 17 -83 20 l-56 7
0 -30z"/>
<path d="M568 543 c7 -3 16 -2 19 1 4 3 -2 6 -13 5 -11 0 -14 -3 -6 -6z"/>
<path d="M658 523 c7 -3 16 -2 19 1 4 3 -2 6 -13 5 -11 0 -14 -3 -6 -6z"/>
<path d="M3760 504 c0 -8 5 -12 10 -9 6 4 8 11 5 16 -9 14 -15 11 -15 -7z"/>
<path d="M866 493 c5 -5 12 -12 16 -18 4 -6 8 -2 8 8 0 9 -7 17 -17 17 -9 0
-12 -3 -7 -7z"/>
<path d="M3368 493 c6 -2 18 -2 25 0 6 3 1 5 -13 5 -14 0 -19 -2 -12 -5z"/>
<path d="M3480 480 c25 -5 50 -17 56 -25 6 -8 16 -15 23 -15 6 0 11 -6 11 -14
0 -7 7 -19 16 -27 9 -8 13 -21 10 -35 -4 -13 -2 -25 2 -28 5 -3 5 -36 0 -73
-7 -49 -15 -72 -29 -84 -17 -12 -20 -25 -18 -65 2 -41 0 -49 -14 -48 -9 1 -17
-4 -17 -12 0 -8 5 -14 10 -14 6 0 10 -7 10 -16 0 -10 -6 -14 -15 -10 -8 3 -15
1 -15 -4 0 -6 24 -10 53 -10 l54 0 12 69 c14 75 11 73 106 102 82 24 147 73
157 116 8 29 -18 51 -119 103 -46 23 -83 47 -83 53 0 5 -3 8 -6 4 -4 -3 -20 1
-36 9 -37 19 -48 21 -140 28 -63 5 -67 4 -28 -4z"/>
<path d="M396 464 c-3 -9 -6 -28 -6 -42 0 -21 -2 -24 -10 -12 -8 13 -10 12
-10 -3 0 -10 -11 -57 -24 -105 -13 -48 -34 -130 -46 -182 -12 -52 -25 -100
-27 -107 -4 -10 12 -13 61 -13 l66 0 0 34 c0 18 7 51 16 71 12 30 13 44 5 62
-6 13 -11 48 -11 76 0 29 -5 58 -12 65 -8 8 -9 12 -1 12 6 0 9 9 6 20 -3 11
-1 20 3 20 5 0 10 10 10 23 1 12 5 32 9 45 8 23 -10 33 -18 10 -2 -7 -3 -1 -1
15 4 30 -1 35 -10 11z"/>
<path d="M767 473 c-10 -9 -9 -23 1 -23 5 0 9 7 9 15 0 17 -1 18 -10 8z"/>
<path d="M3755 460 c-3 -5 -1 -10 4 -10 6 0 11 5 11 10 0 6 -2 10 -4 10 -3 0
-8 -4 -11 -10z"/>
<path d="M440 400 c0 -5 5 -10 10 -10 6 0 10 5 10 10 0 6 -4 10 -10 10 -5 0
-10 -4 -10 -10z"/>
<path d="M2798 244 c-16 -8 -28 -20 -28 -26 0 -8 7 -6 17 4 15 16 17 16 29 0
15 -21 23 -14 15 15 -6 20 -8 20 -33 7z"/>
<path d="M2930 210 c0 -5 5 -10 11 -10 5 0 7 5 4 10 -3 6 -8 10 -11 10 -2 0
-4 -4 -4 -10z"/>
<path d="M2864 169 c-19 -22 -19 -22 4 -10 12 6 22 16 22 21 0 15 -5 12 -26
-11z"/>
<path d="M1537 137 l-15 -45 31 -5 c18 -2 33 -4 34 -3 1 1 -6 24 -16 50 l-18
49 -16 -46z"/>
<path d="M3033 125 c-7 -8 -9 -16 -4 -19 5 -3 12 1 15 10 8 22 4 25 -11 9z"/>
<path d="M3470 129 c0 -5 5 -7 10 -4 6 3 10 8 10 11 0 2 -4 4 -10 4 -5 0 -10
-5 -10 -11z"/>
<path d="M2162 38 c-7 -28 -6 -33 11 -36 26 -5 28 0 21 36 -8 41 -21 41 -32 0z"/>
<path d="M2920 55 c-7 -9 -8 -15 -2 -15 5 0 12 7 16 15 3 8 4 15 2 15 -2 0 -9
-7 -16 -15z"/>
<path d="M1500 15 c0 -8 7 -15 15 -15 9 0 12 6 9 15 -8 19 -24 19 -24 0z"/>
<path d="M1546 15 c4 -9 19 -15 40 -15 26 0 32 3 28 15 -4 9 -19 15 -40 15
-26 0 -32 -3 -28 -15z"/>
<path d="M3046 15 c-3 -8 -1 -15 4 -15 6 0 10 7 10 15 0 19 -6 19 -14 0z"/>
</g>
</svg>
